<svg xmlns="http://www.w3.org/2000/svg" xml:space="preserve" style="fill-rule:evenodd;clip-rule:evenodd;stroke-linecap:round;stroke-linejoin:round" viewBox="0 0 84 84"><circle cx="42" cy="42" r="42" style="fill:#fff"/><path d="M42.403 63.403a18.402 18.402 0 1 1 0-36.806v36.806Z" style="fill:#d9d9d9;fill-rule:nonzero"/><path d="M42.403 20a18.402 18.402 0 1 1 0 36.806V20Z" style="fill:#4a4a4a;fill-opacity:.8;fill-rule:nonzero"/><path d="m40.8 47.927 2.4 2.4a2.547 2.547 0 0 0 1.8.746 2.558 2.558 0 0 0 2.546-2.546c0-.675-.268-1.323-.746-1.8" style="fill:none;fill-rule:nonzero;stroke:#000;stroke-width:2.4px"/><path d="m44.4 44.327 3 3a2.547 2.547 0 0 0 1.8.746 2.558 2.558 0 0 0 2.546-2.546c0-.675-.268-1.323-.746-1.8l-4.656-4.656a3.618 3.618 0 0 0-5.088 0L40.2 40.127a2.547 2.547 0 0 1-1.8.746 2.558 2.558 0 0 1-2.546-2.546c0-.675.268-1.323.746-1.8l3.372-3.372a6.966 6.966 0 0 1 8.472-1.044l.564.336a2.404 2.404 0 0 0 1.704.3l2.088-.42" style="fill:none;fill-rule:nonzero;stroke:#000;stroke-width:2.4px"/><path d="m52.8 31.127 1.2 13.2h-2.4M31.2 31.127l-1.2 13.2 7.8 7.8a2.547 2.547 0 0 0 1.8.746 2.558 2.558 0 0 0 2.546-2.546c0-.675-.268-1.323-.746-1.8M31.2 32.327h9.6" style="fill:none;fill-rule:nonzero;stroke:#000;stroke-width:2.4px"/></svg>