<svg xmlns="http://www.w3.org/2000/svg" xml:space="preserve" style="fill-rule:evenodd;clip-rule:evenodd;stroke-linecap:round;stroke-linejoin:round" viewBox="0 0 350 350"><circle cx="175" cy="175" r="175" style="fill:#fff"/><path d="m173.034 83.333 89.701 89.701-89.701 89.701-89.701-89.701 89.701-89.701Z" style="fill:#d9d9d9;fill-rule:nonzero"/><path d="M225 133.333v83.333a8.337 8.337 0 0 1-8.333 8.333h-83.333a8.337 8.337 0 0 1-8.333-8.333v-83.333a8.337 8.337 0 0 1 8.333-8.333h83.333a8.337 8.337 0 0 1 8.333 8.333Z" style="fill:none;stroke:#000;stroke-width:11.11px"/><path d="M175 158.333v33.333M197.222 191.667V225M197.222 125v33.333M125 191.667h100M125 158.333h100M152.778 191.667V225M152.778 125v33.333" style="fill:none;fill-rule:nonzero;stroke:#000;stroke-width:11.11px"/></svg>