<svg xmlns="http://www.w3.org/2000/svg" xml:space="preserve" style="fill-rule:evenodd;clip-rule:evenodd;stroke-linejoin:round;stroke-miterlimit:2" viewBox="0 0 24 24"><path d="M17.74 8.173a.268.268 0 0 0 .023-.153c-.012-.096-.603-1.757-1.877-3.056-2.375-2.421-5.857-2.975-8.664-1.95-.959.35-1.476.678-2.117 1.142-.658.476-1.326 1.226-1.581 1.565C.635 9.573 1.715 14.74 4.77 17.363c.102.088.748.642 1.392.949.326.155.4.247.5.158.116-.103.076-.125.075-.281 0-.023-.001-.233.114-.268.074-.022.078-.024.954.123.42.071.419.065.455.072.354.067.286.182.286.54.001.644.011.871-.05.931-.11.109-.59-.051-1.174-.185-.34-.078-.501-.163-.503.187-.002.309.101.376.51.483 2.118.554 4.618 1.246 4.618 1.246v1.651s-.894-.271-3.928-1.227c-1.15-.362-1.201-.408-1.249-.524-.073-.177.005-.901-.068-1.027-.209-.363-.437-.047-2.297-1.292-.674-.451-1.328-1.149-1.432-1.261-.681-.728-1.995-2.306-2.445-4.935 0-.002.003-.018-.001-.045C.26 10.898.448 9.475.525 9.07c.326-1.708 1.058-3.804 3.287-5.738.679-.589 1.909-1.337 2.95-1.696.996-.344 1.855-.525 2.556-.589.908-.083 1.678-.032 2.806.199.277.057 4.019.666 6.237 4.531.912 1.589.828 2.206 1.054 2.395h3.282c.095 0 .172.077.172.172v1.35a.172.172 0 0 1-.172.172H12.206a.172.172 0 0 1-.172-.172v-1.35c0-.095.077-.172.172-.172h5.532Z" style="fill:#655c00"/><path d="M22.878 11.049v1.35a.172.172 0 0 1-.172.172H12.215a.172.172 0 0 1-.172-.172v-1.35c0-.095.077-.172.172-.172h10.491c.095 0 .172.077.172.172ZM16.359 13.646v1.35a.172.172 0 0 1-.172.172h-3.98a.172.172 0 0 1-.172-.172v-1.35c0-.095.077-.172.172-.172h3.98c.095 0 .172.077.172.172ZM22.87 13.646v1.35a.172.172 0 0 1-.172.172h-3.98a.172.172 0 0 1-.172-.172v-1.35c0-.095.077-.172.172-.172h3.98c.095 0 .172.077.172.172ZM22.878 16.287v1.35a.172.172 0 0 1-.172.172H12.215a.172.172 0 0 1-.172-.172v-1.35c0-.095.077-.172.172-.172h10.491c.095 0 .172.077.172.172ZM22.87 21.467v1.35a.172.172 0 0 1-.172.172H12.207a.172.172 0 0 1-.172-.172v-1.35c0-.095.077-.172.172-.172h10.491c.095 0 .172.077.172.172ZM16.359 18.881v1.35a.172.172 0 0 1-.172.172h-3.98a.172.172 0 0 1-.172-.172v-1.35c0-.095.077-.172.172-.172h3.98c.095 0 .172.077.172.172ZM22.87 18.881v1.35a.172.172 0 0 1-.172.172h-3.98a.172.172 0 0 1-.172-.172v-1.35c0-.095.077-.172.172-.172h3.98c.095 0 .172.077.172.172ZM8.537 13.846v1.207c0 .115-.073.115-.081.115H6.825c-.008 0-.091 0-.091-.105V13.96c0-.126.078-.131.086-.132l1.631-.114c.009-.001.086-.006.086.131ZM11.948 13.646v1.35c0 .068-.049.172-.122.172H9.7c-.068 0-.114-.095-.114-.155v-1.222c0-.065.044-.159.103-.163 1.073-.08 1.066-.082 2.136-.146.073-.004.122.098.122.165ZM11.948 11.033v1.35a.223.223 0 0 1-.191.193l-4.869.54c-.11.012-.153-.09-.153-.128v-1.136c0-.145.139-.167.153-.17l4.869-.791c.016-.003.191-.031.191.141ZM11.948 16.285v1.361c0 .173-.182.153-.199.151l-4.868-.534c-.013-.001-.147-.016-.147-.153v-1.074c0-.137.134-.131.147-.131l4.868.198a.21.21 0 0 1 .199.181ZM11.948 18.904v1.35c0 .087-.041.163-.082.154l-2.205-.486c-.074-.016-.074-.156-.074-.175V18.5c0-.082.037-.153.074-.146l2.205.366c.041.007.082.098.082.185ZM11.948 8.345v1.35a.263.263 0 0 1-.192.217l-4.869 1.15c-.013.003-.152.036-.152-.107V9.828c0-.143.138-.184.152-.188l4.869-1.412c.016-.005.192-.056.192.116Z" style="fill:#657c00"/></svg>