<svg xmlns="http://www.w3.org/2000/svg" xml:space="preserve" style="fill-rule:evenodd;clip-rule:evenodd;stroke-linecap:round;stroke-linejoin:round;stroke-miterlimit:1.5" viewBox="0 0 76 76"><path d="M321.02 307.37h393.554v406.738H321.02z" style="fill:#0c2e13;stroke:#3f7647;stroke-width:22.22px" transform="matrix(.18295 0 0 .17702 -56.73 -52.41)"/><path d="M404.516 382.242h98.858v259.766h-98.858z" style="fill:#3f7647" transform="matrix(.16 0 0 .16 -43.92 -43.92)"/><path d="M404.516 382.242h98.858v259.766h-98.858z" style="fill:#3f7647" transform="matrix(.16 0 0 .16 -25.2 -43.92)"/><path d="M380.856 396.09h22.946l.28 99.553 68.151-.068 11.764 23.282H380.08l.776-122.767Z" style="fill:#fff" transform="matrix(.23481 0 0 .23481 -81.215 -69.024)"/><path d="M449.218 410.09h25l41 88.99 41.4-88.99h25.2l-66.8 135.79-65.8-135.79Z" style="fill:#fff" transform="matrix(.23481 0 0 .23481 -83.182 -72.197)"/><path d="M632.288 396.09h43.972v24.2l-55.926-.366 11.954-23.834Z" style="fill:#fff" transform="matrix(.23481 0 0 .23481 -91.197 -68.91)"/><path d="M602.84 396.09h69.42v24.2l-80.442-.4 11.022-23.8Z" style="fill:#fff" transform="matrix(.23481 0 0 .23481 -90.258 -57.169)"/><path d="M603.84 396.09h92.42v24.2l-103.442-.4 11.022-23.8Z" style="fill:#fff" transform="matrix(.23481 0 0 .23481 -95.893 -45.663)"/></svg>