<svg xmlns="http://www.w3.org/2000/svg" xml:space="preserve" style="fill-rule:evenodd;clip-rule:evenodd;stroke-linejoin:round;stroke-miterlimit:2" viewBox="0 0 100 100"><path d="M73.918 34.056c.143-.253.102-.584.096-.639-.05-.401-2.512-7.321-7.821-12.733-9.896-10.088-24.402-12.397-36.099-8.123-3.995 1.46-6.152 2.826-8.822 4.757-2.743 1.984-5.525 5.107-6.586 6.522-12.038 16.048-7.539 37.578 5.192 48.507.426.366 3.118 2.677 5.801 3.953 1.359.647 1.668 1.029 2.085.659.484-.43.315-.521.312-1.171 0-.097-.005-.972.476-1.117.307-.093.324-.098 3.975.514 1.752.294 1.746.273 1.897.302 1.475.28 1.191.758 1.193 2.251.004 2.683.047 3.627-.207 3.879-.458.453-2.458-.214-4.892-.773-1.417-.325-2.088-.678-2.096.779-.008 1.288.421 1.566 2.123 2.011 8.823 2.307 19.24 5.193 19.24 5.193v6.877s-3.723-1.128-16.367-5.114c-4.79-1.51-5.003-1.699-5.203-2.182-.305-.738.021-3.753-.282-4.278-.871-1.511-1.819-.198-9.571-5.381-2.808-1.878-5.532-4.79-5.966-5.254-2.839-3.035-8.311-9.607-10.187-20.563-.001-.01.011-.077-.006-.189-1.113-7.333-.33-13.262-.008-14.952 1.356-7.117 4.409-15.848 13.694-23.906 2.829-2.455 7.955-5.569 12.291-7.066 4.152-1.433 7.729-2.187 10.649-2.452 3.783-.344 6.991-.132 11.691.831 1.155.237 16.745 2.773 25.99 18.88 3.799 6.619 3.452 9.192 4.391 9.979h13.677c.395 0 .716.321.716.716v5.625a.717.717 0 0 1-.716.716H50.867a.717.717 0 0 1-.716-.716v-5.625c0-.395.321-.716.716-.716h23.052Z" style="fill:#fff"/><path d="M95.323 46.036v5.625a.717.717 0 0 1-.716.716H50.896a.717.717 0 0 1-.716-.716v-5.625c0-.395.321-.716.716-.716h43.711c.395 0 .716.321.716.716ZM68.164 56.859v5.625a.717.717 0 0 1-.716.716H50.866a.717.717 0 0 1-.716-.716v-5.625c0-.395.321-.716.716-.716h16.582c.395 0 .716.321.716.716ZM95.293 56.859v5.625a.717.717 0 0 1-.716.716H77.995a.717.717 0 0 1-.716-.716v-5.625c0-.395.321-.716.716-.716h16.582c.395 0 .716.321.716.716ZM95.323 67.862v5.625a.717.717 0 0 1-.716.716H50.896a.717.717 0 0 1-.716-.716v-5.625c0-.395.321-.716.716-.716h43.711c.395 0 .716.321.716.716ZM95.293 89.447v5.625a.717.717 0 0 1-.716.716H50.866a.717.717 0 0 1-.716-.716v-5.625c0-.395.321-.716.716-.716h43.711c.395 0 .716.321.716.716ZM68.164 78.669v5.625a.717.717 0 0 1-.716.716H50.866a.717.717 0 0 1-.716-.716v-5.625c0-.395.321-.716.716-.716h16.582c.395 0 .716.321.716.716ZM95.293 78.669v5.625a.717.717 0 0 1-.716.716H77.995a.717.717 0 0 1-.716-.716v-5.625c0-.395.321-.716.716-.716h16.582c.395 0 .716.321.716.716ZM35.573 57.692v5.031c0 .478-.306.478-.339.478h-6.796c-.035 0-.378 0-.378-.437v-4.596c0-.523.323-.546.359-.548l6.795-.475c.036-.002.36-.025.36.548ZM49.784 56.859v5.625c0 .282-.206.716-.507.716H40.42c-.283 0-.474-.395-.474-.648v-5.091c0-.269.183-.661.428-.68 4.472-.332 4.443-.341 8.9-.609.306-.018.509.407.509.685ZM49.784 45.97v5.625c0 .194-.232.742-.798.804l-20.289 2.252c-.459.051-.639-.375-.639-.532v-4.735c0-.603.581-.697.639-.706l20.289-3.295c.067-.011.798-.13.798.586ZM49.784 67.853v5.671c0 .722-.758.639-.829.631L28.67 71.931c-.055-.006-.611-.067-.611-.637v-4.477c0-.57.558-.547.611-.545l20.285.826c.596.024.829.569.829.755ZM49.784 78.767v5.625c0 .363-.169.679-.341.641l-9.189-2.025c-.308-.068-.308-.652-.308-.729v-5.197c0-.342.155-.636.308-.61l9.189 1.524c.172.029.341.409.341.772ZM49.784 34.772v5.625c0 .201-.239.772-.802.905l-20.289 4.792c-.053.013-.635.15-.635-.448v-4.695c0-.598.577-.765.635-.782l20.289-5.882c.066-.019.802-.232.802.484Z" style="fill:#fff"/></svg>